<svg width="18" height="20" viewBox="0 0 18 20" fill="none" xmlns="http://www.w3.org/2000/svg">
<path fill-rule="evenodd" clip-rule="evenodd" d="M17 1H13.98C13.8873 0.543558 13.4838 0.200012 13 0.200012H5C4.51621 0.200012 4.11267 0.543558 4.02001 1H1C0.447715 1 0 1.44772 0 2V18.8C0 19.3523 0.447715 19.8 1 19.8H17C17.5523 19.8 18 19.3523 18 18.8V2C18 1.44772 17.5523 1 17 1ZM12.1071 10.0929C12.4976 10.4834 12.4976 11.1166 12.1071 11.5071L8.90708 14.7071C8.51656 15.0976 7.88339 15.0976 7.49287 14.7071L5.89287 13.1071C5.50234 12.7166 5.50234 12.0834 5.89287 11.6929C6.28339 11.3024 6.91656 11.3024 7.30708 11.6929L8.19998 12.5858L10.6929 10.0929C11.0834 9.70237 11.7166 9.70237 12.1071 10.0929ZM6 5.00001V2.20001H12V5.00001H11.4008C11.0091 4.0603 10.0819 3.40001 9 3.40001C7.91811 3.40001 6.99087 4.0603 6.59916 5.00001H6Z" fill="#4576BA"/>
</svg>
