<svg width="136" height="136" viewBox="0 0 136 136" fill="none" xmlns="http://www.w3.org/2000/svg">
<path d="M88.2596 70.387L93.4655 67.3882V38.0483L88.2596 41.0471V70.387Z" fill="url(#paint0_linear)"/>
<path d="M68.108 82.0222L73.3138 79.0234V61.2947L68.108 64.2934V82.0222Z" fill="url(#paint1_linear)"/>
<path d="M78.1838 76.1927L83.3897 73.1939V43.854L78.1838 46.8528V76.1927Z" fill="url(#paint2_linear)"/>
<path d="M93.4655 38.0482L88.2597 41.047L62.6862 26.2931L67.9401 23.2463L93.4655 38.0482Z" fill="url(#paint3_linear)"/>
<path d="M83.3896 43.8539L78.1838 46.8527L52.6103 32.0987L57.8642 29.052L83.3896 43.8539Z" fill="url(#paint4_linear)"/>
<path d="M73.3138 49.6356L68.108 52.6583L42.5345 37.9044L47.7883 34.8577L73.3138 49.6356Z" fill="url(#paint5_linear)"/>
<path d="M42.6305 67.2922L68.108 52.6583L62.8781 49.6355L42.6305 61.2707V67.2922Z" fill="url(#paint6_linear)"/>
<path d="M42.5345 37.9043L42.6304 56.9045L47.6684 54.2176V40.8551L42.5345 37.9043Z" fill="url(#paint7_linear)"/>
<path d="M42.6305 67.2924L68.108 82.0223V76.0008L47.6684 64.4136L42.6305 67.2924Z" fill="url(#paint8_linear)"/>
<path d="M52.6103 32.0989V35.0257L57.7682 38.0244V35.0737L52.6103 32.0989Z" fill="url(#paint9_linear)"/>
<path d="M62.6862 26.2693V29.2201L67.8681 32.1948V29.2681L62.6862 26.2693Z" fill="url(#paint10_linear)"/>
<path d="M88.2597 70.3871L85.3089 68.8277V63.238L88.2597 64.7254V70.3871Z" fill="url(#paint11_linear)"/>
<path d="M78.1838 76.1928L75.209 74.6334V69.0437L78.1838 70.5311V76.1928Z" fill="url(#paint12_linear)"/>
<path d="M53.7139 112.754H46.085C44.2378 112.754 42.7264 111.242 42.7264 109.395V95.4087C42.7264 93.5614 44.2378 92.05 46.085 92.05H60.0713C61.9185 92.05 63.4299 93.5614 63.4299 95.4087V106.564V107.764C63.4299 108.411 62.9021 108.963 62.2304 108.963C61.5826 108.963 61.0309 108.435 61.0309 107.764V106.564V96.0324C61.0309 95.1448 60.3112 94.4251 59.4235 94.4251H46.6848C45.7971 94.4251 45.0774 95.1448 45.0774 96.0324V108.771C45.0774 109.659 45.7971 110.379 46.6848 110.379H53.6899H54.6015C55.2492 110.379 55.801 110.906 55.801 111.578C55.801 112.226 55.2732 112.778 54.6015 112.778H53.7139V112.754Z" fill="url(#paint13_linear)"/>
<path d="M66.9804 92.0262H74.5853C76.4325 92.0262 77.9439 93.5376 77.9439 95.3848V109.395C77.9439 111.242 76.4325 112.754 74.5853 112.754H60.599C58.7518 112.754 57.2404 111.242 57.2404 109.395V98.2396V97.0401C57.2404 96.3924 57.7682 95.8406 58.4399 95.8406C59.0877 95.8406 59.6394 96.3684 59.6394 97.0401V98.2396V108.747C59.6394 109.635 60.3591 110.355 61.2468 110.355H73.9855C74.8732 110.355 75.5929 109.635 75.5929 108.747V96.0086C75.5929 95.1209 74.8732 94.4012 73.9855 94.4012H67.0044H66.0928C65.445 94.4012 64.8933 93.8734 64.8933 93.2017C64.8933 92.53 65.4211 92.0022 66.0928 92.0022H66.9804V92.0262Z" fill="url(#paint14_linear)"/>
<path d="M23.4863 110.355H40.3514V112.754H20.1037V110.355V110.187L37.1367 91.3303H37.0167H20.1037V88.9553H40.3514V91.0425V91.3303L23.1504 110.355H23.4863Z" fill="white"/>
<path d="M96.4883 108.819C96.1524 109.611 95.6966 110.259 95.0968 110.786C94.4971 111.314 93.7774 111.722 92.9617 111.986C92.1221 112.25 91.2104 112.394 90.1789 112.394H81.3985V89.2432H89.915C90.8746 89.2432 91.7622 89.3871 92.5779 89.651C93.3935 89.9149 94.1132 90.3227 94.713 90.8265C95.3127 91.3543 95.7686 91.978 96.1044 92.7217C96.4403 93.4654 96.6082 94.3291 96.6082 95.2647C96.6082 96.4882 96.2963 97.5677 95.6486 98.5034C95.0009 99.439 94.1132 100.111 92.9857 100.471C94.2332 100.902 95.2168 101.598 95.9125 102.582C96.6082 103.565 96.9441 104.717 96.9441 106.06C96.9681 107.14 96.8001 108.051 96.4883 108.819ZM94.4491 93.2495C94.1852 92.6977 93.8014 92.2179 93.3456 91.8581C92.8897 91.4982 92.338 91.2343 91.7142 91.0664C91.0905 90.8985 90.4188 90.8025 89.723 90.8025H83.1498V99.7748H89.723C90.4188 99.7748 91.0665 99.6789 91.7142 99.5109C92.338 99.343 92.8897 99.0791 93.3456 98.7193C93.8014 98.3594 94.1852 97.9036 94.4491 97.3278C94.713 96.7761 94.8569 96.0804 94.8569 95.2887C94.8569 94.497 94.713 93.8013 94.4491 93.2495ZM93.7774 102.606C92.8178 101.766 91.5463 101.358 89.9629 101.358H83.1258V110.834H89.9629C91.5463 110.834 92.8178 110.426 93.7774 109.587C94.737 108.747 95.2168 107.596 95.2168 106.084C95.2168 104.597 94.737 103.421 93.7774 102.606Z" fill="white"/>
<path d="M90.1549 112.754H81.0146V88.9075H89.891C90.8746 88.9075 91.8102 89.0514 92.6738 89.3393C93.5375 89.6272 94.3052 90.035 94.9289 90.5868C95.5526 91.1386 96.0564 91.8103 96.4163 92.6019C96.7761 93.3936 96.9441 94.3052 96.9441 95.2888C96.9441 96.5603 96.6082 97.7118 95.9365 98.7194C95.4087 99.4871 94.737 100.087 93.9213 100.495C94.8809 100.951 95.6486 101.598 96.2244 102.414C96.9681 103.445 97.3279 104.693 97.3279 106.084C97.3279 107.164 97.16 108.124 96.8241 108.939C96.4883 109.755 95.9845 110.475 95.3607 111.026C94.737 111.578 93.9693 112.01 93.0817 112.298C92.194 112.61 91.2104 112.754 90.1549 112.754ZM81.7343 112.058H90.1789C91.1624 112.058 92.0501 111.938 92.8418 111.674C93.6334 111.41 94.3052 111.026 94.8569 110.547C95.4087 110.043 95.8405 109.443 96.1524 108.699C96.4643 107.956 96.6082 107.092 96.6082 106.108C96.6082 104.837 96.2724 103.733 95.6246 102.822C94.9769 101.91 94.0413 101.238 92.8657 100.831L91.8822 100.495L92.8657 100.183C93.9213 99.847 94.737 99.2232 95.3367 98.3596C95.9365 97.4719 96.2484 96.4644 96.2484 95.3128C96.2484 94.4012 96.0804 93.6095 95.7686 92.8898C95.4567 92.1941 95.0249 91.5944 94.4491 91.1146C93.8973 90.6348 93.2256 90.2509 92.4339 89.987C91.6422 89.7231 90.7786 89.6032 89.867 89.6032H81.6863V112.058H81.7343ZM89.9629 111.194H82.7899V100.998H89.9629C91.6183 100.998 92.9857 101.454 93.9933 102.342C95.0249 103.254 95.5526 104.501 95.5526 106.108C95.5526 107.692 95.0249 108.963 93.9933 109.875C92.9857 110.738 91.6423 111.194 89.9629 111.194ZM83.4856 110.499H89.9629C91.4503 110.499 92.6498 110.115 93.5375 109.323C94.4251 108.555 94.8569 107.5 94.8569 106.084C94.8569 104.669 94.4251 103.613 93.5375 102.846C92.6498 102.078 91.4503 101.67 89.9629 101.67H83.4856V110.499ZM89.699 100.135H82.7899V90.4668H89.699C90.4188 90.4668 91.1145 90.5628 91.7862 90.7307C92.4579 90.9226 93.0577 91.2105 93.5375 91.5944C94.0413 91.9782 94.4491 92.482 94.737 93.1057C95.0249 93.7055 95.1688 94.4492 95.1688 95.3128C95.1688 96.1525 95.0249 96.8962 94.737 97.5199C94.4491 98.1197 94.0413 98.6475 93.5375 99.0313C93.0337 99.4151 92.4339 99.703 91.7862 99.8949C91.1385 100.039 90.4427 100.135 89.699 100.135ZM83.4856 99.4391H89.699C90.3708 99.4391 90.9945 99.3672 91.5943 99.1992C92.17 99.0313 92.6978 98.7914 93.1296 98.4555C93.5615 98.1437 93.8973 97.7118 94.1372 97.2081C94.3771 96.7043 94.5211 96.0565 94.5211 95.3128C94.5211 94.5691 94.4011 93.9214 94.1372 93.4176C93.8973 92.9138 93.5615 92.482 93.1296 92.1701C92.6978 91.8343 92.194 91.5944 91.5943 91.4264C90.9945 91.2585 90.3708 91.1865 89.699 91.1865H83.4856V99.4391Z" fill="white"/>
<path d="M114.553 108.531C114.097 109.347 113.545 110.043 112.874 110.618C112.202 111.194 111.434 111.626 110.57 111.938C109.707 112.25 108.771 112.394 107.764 112.394C106.684 112.394 105.652 112.202 104.669 111.794C103.685 111.386 102.822 110.81 102.078 110.067C101.574 109.563 101.166 109.035 100.878 108.483C100.591 107.932 100.375 107.308 100.231 106.612C100.087 105.916 100.015 105.101 99.9908 104.141C99.9668 103.205 99.9668 102.102 99.9668 100.806C99.9668 99.535 99.9668 98.4314 99.9908 97.4958C100.015 96.5602 100.087 95.7446 100.231 95.0488C100.375 94.3531 100.591 93.7294 100.878 93.1536C101.166 92.6018 101.574 92.0741 102.078 91.5463C102.822 90.8026 103.685 90.2268 104.669 89.819C105.652 89.4112 106.684 89.2192 107.764 89.2192C108.795 89.2192 109.731 89.3632 110.594 89.675C111.458 89.9869 112.226 90.4187 112.874 90.9945C113.545 91.5703 114.097 92.266 114.529 93.0817C114.985 93.8973 115.297 94.8329 115.488 95.8405H113.737C113.401 94.2572 112.706 93.0097 111.65 92.0981C110.594 91.1864 109.299 90.7306 107.764 90.7306C106.948 90.7306 106.18 90.8746 105.437 91.1864C104.693 91.4743 104.021 91.9301 103.445 92.5059C103.038 92.9137 102.726 93.3455 102.486 93.8014C102.246 94.2572 102.078 94.8089 101.958 95.4327C101.838 96.0564 101.766 96.8001 101.742 97.6638C101.718 98.5274 101.694 99.559 101.694 100.782C101.694 102.006 101.718 103.038 101.742 103.901C101.766 104.765 101.838 105.509 101.958 106.132C102.078 106.756 102.246 107.308 102.486 107.764C102.726 108.219 103.038 108.651 103.445 109.059C104.021 109.635 104.669 110.067 105.437 110.379C106.18 110.666 106.948 110.834 107.764 110.834C109.299 110.834 110.594 110.379 111.674 109.467C112.754 108.555 113.449 107.308 113.809 105.724H115.512C115.321 106.78 114.985 107.716 114.553 108.531Z" fill="white"/>
<path d="M107.764 112.753C106.636 112.753 105.557 112.538 104.525 112.13C103.517 111.722 102.606 111.098 101.814 110.33C101.286 109.803 100.854 109.227 100.567 108.675C100.255 108.099 100.039 107.452 99.8949 106.708C99.7509 105.988 99.679 105.149 99.655 104.189C99.631 103.253 99.631 102.126 99.631 100.854C99.631 99.5829 99.631 98.4554 99.655 97.5437C99.679 96.6081 99.7509 95.7685 99.8949 95.0488C100.039 94.3291 100.255 93.6573 100.567 93.0816C100.878 92.5058 101.286 91.93 101.838 91.4023C102.606 90.6346 103.517 90.0108 104.549 89.603C105.581 89.1952 106.66 88.9792 107.788 88.9792C108.843 88.9792 109.827 89.1472 110.738 89.4591C111.626 89.7709 112.442 90.2507 113.137 90.8505C113.833 91.4502 114.409 92.1939 114.865 93.0336C115.32 93.8732 115.656 94.8568 115.848 95.8884L115.92 96.2962H113.473L113.425 96.0323C113.113 94.545 112.442 93.3455 111.434 92.4818C110.451 91.6182 109.227 91.1863 107.764 91.1863C106.996 91.1863 106.252 91.3303 105.557 91.6182C104.861 91.906 104.237 92.3139 103.685 92.8417C103.301 93.2255 103.014 93.6333 102.798 94.0412C102.582 94.473 102.414 94.9768 102.294 95.5765C102.174 96.1763 102.102 96.92 102.078 97.7596C102.054 98.6233 102.03 99.6549 102.03 100.854C102.03 102.054 102.054 103.109 102.078 103.949C102.102 104.789 102.174 105.532 102.294 106.132C102.414 106.732 102.582 107.236 102.798 107.668C103.014 108.099 103.325 108.507 103.685 108.867C104.237 109.419 104.861 109.827 105.557 110.091C106.252 110.378 106.996 110.522 107.764 110.522C109.203 110.522 110.451 110.091 111.458 109.227C112.466 108.363 113.137 107.164 113.473 105.676L113.521 105.412H115.896L115.824 105.82C115.632 106.876 115.297 107.835 114.841 108.675C114.385 109.539 113.785 110.258 113.089 110.858C112.394 111.458 111.578 111.914 110.69 112.25C109.779 112.586 108.795 112.753 107.764 112.753ZM107.764 89.603C106.732 89.603 105.724 89.7949 104.789 90.1788C103.853 90.5626 103.014 91.1144 102.318 91.8341C101.838 92.3139 101.454 92.8177 101.19 93.3455C100.926 93.8732 100.711 94.473 100.591 95.1447C100.447 95.8164 100.375 96.6321 100.351 97.5197C100.327 98.4314 100.327 99.5589 100.327 100.83C100.327 102.102 100.327 103.205 100.351 104.141C100.375 105.053 100.447 105.868 100.591 106.54C100.711 107.212 100.926 107.811 101.19 108.315C101.454 108.819 101.838 109.323 102.318 109.827C103.038 110.546 103.853 111.098 104.789 111.482C105.724 111.866 106.732 112.058 107.764 112.058C108.723 112.058 109.611 111.914 110.451 111.626C111.266 111.338 112.01 110.906 112.634 110.354C113.281 109.803 113.809 109.131 114.241 108.363C114.601 107.692 114.889 106.924 115.081 106.108H114.073C113.689 107.62 112.969 108.867 111.89 109.755C110.762 110.714 109.371 111.218 107.764 111.218C106.924 111.218 106.084 111.05 105.293 110.738C104.501 110.426 103.805 109.971 103.206 109.347C102.774 108.915 102.438 108.459 102.174 107.955C101.934 107.476 101.742 106.9 101.622 106.228C101.502 105.58 101.43 104.813 101.382 103.949C101.358 103.085 101.334 102.03 101.334 100.83C101.334 99.6069 101.358 98.5753 101.382 97.7117C101.406 96.824 101.502 96.0563 101.622 95.4326C101.742 94.7849 101.934 94.1851 102.174 93.7053C102.414 93.2255 102.774 92.7457 103.206 92.3139C103.805 91.7141 104.525 91.2343 105.293 90.9224C106.084 90.6106 106.9 90.4426 107.764 90.4426C109.371 90.4426 110.762 90.9225 111.866 91.906C112.921 92.8177 113.641 94.0412 114.001 95.5525H115.081C114.889 94.7369 114.601 93.9692 114.241 93.2975C113.809 92.5058 113.281 91.8341 112.658 91.3063C112.034 90.7545 111.29 90.3467 110.475 90.0348C109.659 89.7709 108.747 89.603 107.764 89.603Z" fill="white"/>
<defs>
<linearGradient id="paint0_linear" x1="90.8664" y1="38.0406" x2="90.8664" y2="70.3816" gradientUnits="userSpaceOnUse">
<stop stop-color="#822E86"/>
<stop offset="0.1509" stop-color="#8D3288"/>
<stop offset="0.4396" stop-color="#9B378B"/>
<stop offset="0.7248" stop-color="#A43B8D"/>
<stop offset="1" stop-color="#A73C8D"/>
</linearGradient>
<linearGradient id="paint1_linear" x1="70.7033" y1="82.0216" x2="70.7033" y2="61.301" gradientUnits="userSpaceOnUse">
<stop stop-color="#0086C2"/>
<stop offset="0.0384902" stop-color="#0089C3"/>
<stop offset="0.2838" stop-color="#0096CC"/>
<stop offset="0.5279" stop-color="#009FD1"/>
<stop offset="0.7681" stop-color="#00A4D4"/>
<stop offset="1" stop-color="#00A6D5"/>
</linearGradient>
<linearGradient id="paint2_linear" x1="80.7849" y1="43.8493" x2="80.7849" y2="76.1904" gradientUnits="userSpaceOnUse">
<stop stop-color="#822E86"/>
<stop offset="0.1509" stop-color="#8D3288"/>
<stop offset="0.4396" stop-color="#9B378B"/>
<stop offset="0.7248" stop-color="#A43B8D"/>
<stop offset="1" stop-color="#A73C8D"/>
</linearGradient>
<linearGradient id="paint3_linear" x1="62.6971" y1="32.1493" x2="93.4731" y2="32.1493" gradientUnits="userSpaceOnUse">
<stop stop-color="#822E86"/>
<stop offset="0.1509" stop-color="#8D3288"/>
<stop offset="0.4396" stop-color="#9B378B"/>
<stop offset="0.7248" stop-color="#A43B8D"/>
<stop offset="1" stop-color="#A73C8D"/>
</linearGradient>
<linearGradient id="paint4_linear" x1="52.6155" y1="37.9509" x2="83.3915" y2="37.9509" gradientUnits="userSpaceOnUse">
<stop stop-color="#822E86"/>
<stop offset="0.1509" stop-color="#8D3288"/>
<stop offset="0.4396" stop-color="#9B378B"/>
<stop offset="0.7248" stop-color="#A43B8D"/>
<stop offset="1" stop-color="#A73C8D"/>
</linearGradient>
<linearGradient id="paint5_linear" x1="42.5339" y1="43.7559" x2="73.3099" y2="43.7559" gradientUnits="userSpaceOnUse">
<stop stop-color="#0086C2"/>
<stop offset="0.0384902" stop-color="#0089C3"/>
<stop offset="0.2838" stop-color="#0096CC"/>
<stop offset="0.5279" stop-color="#009FD1"/>
<stop offset="0.7681" stop-color="#00A4D4"/>
<stop offset="1" stop-color="#00A6D5"/>
</linearGradient>
<linearGradient id="paint6_linear" x1="68.0966" y1="58.472" x2="42.6309" y2="58.472" gradientUnits="userSpaceOnUse">
<stop stop-color="#0086C2"/>
<stop offset="0.0384902" stop-color="#0089C3"/>
<stop offset="0.2838" stop-color="#0096CC"/>
<stop offset="0.5279" stop-color="#009FD1"/>
<stop offset="0.7681" stop-color="#00A4D4"/>
<stop offset="1" stop-color="#00A6D5"/>
</linearGradient>
<linearGradient id="paint7_linear" x1="45.1029" y1="56.9072" x2="45.1029" y2="37.8946" gradientUnits="userSpaceOnUse">
<stop stop-color="#0086C2"/>
<stop offset="0.0384902" stop-color="#0089C3"/>
<stop offset="0.2838" stop-color="#0096CC"/>
<stop offset="0.5279" stop-color="#009FD1"/>
<stop offset="0.7681" stop-color="#00A4D4"/>
<stop offset="1" stop-color="#00A6D5"/>
</linearGradient>
<linearGradient id="paint8_linear" x1="42.6309" y1="73.212" x2="68.1" y2="73.212" gradientUnits="userSpaceOnUse">
<stop stop-color="#0086C2"/>
<stop offset="0.0384902" stop-color="#0089C3"/>
<stop offset="0.2838" stop-color="#0096CC"/>
<stop offset="0.5279" stop-color="#009FD1"/>
<stop offset="0.7681" stop-color="#00A4D4"/>
<stop offset="1" stop-color="#00A6D5"/>
</linearGradient>
<linearGradient id="paint9_linear" x1="55.1953" y1="32.0899" x2="55.1953" y2="38.0141" gradientUnits="userSpaceOnUse">
<stop stop-color="#822E86"/>
<stop offset="0.1509" stop-color="#8D3288"/>
<stop offset="0.4396" stop-color="#9B378B"/>
<stop offset="0.7248" stop-color="#A43B8D"/>
<stop offset="1" stop-color="#A73C8D"/>
</linearGradient>
<linearGradient id="paint10_linear" x1="65.2769" y1="26.2807" x2="65.2769" y2="32.2049" gradientUnits="userSpaceOnUse">
<stop stop-color="#822E86"/>
<stop offset="0.1509" stop-color="#8D3288"/>
<stop offset="0.4396" stop-color="#9B378B"/>
<stop offset="0.7248" stop-color="#A43B8D"/>
<stop offset="1" stop-color="#A73C8D"/>
</linearGradient>
<linearGradient id="paint11_linear" x1="89.4522" y1="69.4511" x2="84.4018" y2="64.4007" gradientUnits="userSpaceOnUse">
<stop stop-color="#822E86"/>
<stop offset="0.1509" stop-color="#8D3288"/>
<stop offset="0.4396" stop-color="#9B378B"/>
<stop offset="0.7248" stop-color="#A43B8D"/>
<stop offset="1" stop-color="#A73C8D"/>
</linearGradient>
<linearGradient id="paint12_linear" x1="79.2397" y1="75.129" x2="74.1893" y2="70.0786" gradientUnits="userSpaceOnUse">
<stop stop-color="#822E86"/>
<stop offset="0.1509" stop-color="#8D3288"/>
<stop offset="0.4396" stop-color="#9B378B"/>
<stop offset="0.7248" stop-color="#A43B8D"/>
<stop offset="1" stop-color="#A73C8D"/>
</linearGradient>
<linearGradient id="paint13_linear" x1="42.7299" y1="102.393" x2="63.4429" y2="102.393" gradientUnits="userSpaceOnUse">
<stop stop-color="#0086C2"/>
<stop offset="0.0384902" stop-color="#0089C3"/>
<stop offset="0.2838" stop-color="#0096CC"/>
<stop offset="0.5279" stop-color="#009FD1"/>
<stop offset="0.7681" stop-color="#00A4D4"/>
<stop offset="1" stop-color="#00A6D5"/>
</linearGradient>
<linearGradient id="paint14_linear" x1="57.2402" y1="102.393" x2="77.9533" y2="102.393" gradientUnits="userSpaceOnUse">
<stop stop-color="#822E86"/>
<stop offset="0.1509" stop-color="#8D3288"/>
<stop offset="0.4396" stop-color="#9B378B"/>
<stop offset="0.7248" stop-color="#A43B8D"/>
<stop offset="1" stop-color="#A73C8D"/>
</linearGradient>
</defs>
</svg>
