<svg width="22" height="20" viewBox="0 0 22 20" fill="none" xmlns="http://www.w3.org/2000/svg">
<path d="M21.5767 8.38726L11.5765 0.20532C11.4141 0.072539 11.2108 0 11.0011 0C10.7913 0 10.588 0.072539 10.4256 0.20532L0.425456 8.38726C0.243022 8.54118 0.128445 8.76069 0.106465 8.99837C0.0844851 9.23605 0.156865 9.47284 0.307977 9.65761C0.459089 9.84238 0.676809 9.96031 0.914126 9.98593C1.15144 10.0116 1.38931 9.94281 1.57638 9.79455L2.81913 8.77817V19.091C2.81913 19.3322 2.91491 19.5634 3.0854 19.7339C3.25589 19.9044 3.48712 20.0002 3.72823 20.0002H9.18286V14.5455H12.8193V20.0002H18.2739C18.515 20.0002 18.7462 19.9044 18.9167 19.7339C19.0872 19.5634 19.183 19.3322 19.183 19.091V8.77817L20.4257 9.79455C20.5179 9.87229 20.6246 9.93093 20.7396 9.96706C20.8546 10.0032 20.9757 10.0161 21.0957 10.005C21.2158 9.99387 21.3324 9.959 21.4388 9.90239C21.5453 9.84579 21.6394 9.76858 21.7157 9.67526C21.792 9.58193 21.849 9.47436 21.8834 9.3588C21.9178 9.24325 21.9288 9.12201 21.9158 9.00215C21.9029 8.88228 21.8663 8.76619 21.808 8.66063C21.7498 8.55507 21.6712 8.46214 21.5767 8.38726Z" fill="#4576BA"/>
</svg>
