<svg width="13" height="14" viewBox="0 0 13 14" fill="none" xmlns="http://www.w3.org/2000/svg">
<path d="M9.92857 5.25C11.3463 5.25 12.5 4.07225 12.5 2.625C12.5 1.17775 11.3463 0 9.92857 0C8.51086 0 7.35714 1.17775 7.35714 2.625C7.35714 2.821 7.382 3.01 7.42143 3.19375L4.66229 4.95337C4.22343 4.59725 3.67486 4.375 3.07143 4.375C1.65371 4.375 0.5 5.55275 0.5 7C0.5 8.44725 1.65371 9.625 3.07143 9.625C3.67486 9.625 4.22343 9.40275 4.66229 9.04663L7.42143 10.8071C7.382 10.99 7.35714 11.179 7.35714 11.375C7.35714 12.8223 8.51086 14 9.92857 14C11.3463 14 12.5 12.8223 12.5 11.375C12.5 9.92775 11.3463 8.75 9.92857 8.75C9.32514 8.75 8.77743 8.97225 8.33771 9.32837L5.57857 7.56787C5.618 7.385 5.64286 7.19513 5.64286 7C5.64286 6.804 5.618 6.615 5.57857 6.43213L8.33857 4.67163C8.77743 5.02775 9.32514 5.25 9.92857 5.25ZM9.92857 1.75C10.4009 1.75 10.7857 2.142 10.7857 2.625C10.7857 3.108 10.4009 3.5 9.92857 3.5C9.45629 3.5 9.07143 3.108 9.07143 2.625C9.07143 2.142 9.45629 1.75 9.92857 1.75ZM3.07143 7.875C2.59914 7.875 2.21429 7.483 2.21429 7C2.21429 6.517 2.59914 6.125 3.07143 6.125C3.54371 6.125 3.92857 6.517 3.92857 7C3.92857 7.483 3.54371 7.875 3.07143 7.875ZM9.92857 10.5C10.4009 10.5 10.7857 10.892 10.7857 11.375C10.7857 11.858 10.4009 12.25 9.92857 12.25C9.45629 12.25 9.07143 11.858 9.07143 11.375C9.07143 10.892 9.45629 10.5 9.92857 10.5Z" fill="#4576BA"/>
</svg>
