<svg width="19" height="20" viewBox="0 0 19 20" fill="none" xmlns="http://www.w3.org/2000/svg">
<path fill-rule="evenodd" clip-rule="evenodd" d="M0 0.0869446H13.2174C14.5837 0.0869446 15.6957 1.19886 15.6957 2.56521V17.4348C15.6957 18.8011 14.5837 19.913 13.2174 19.913H0V0.0869446ZM2 17.913H13.2174C13.4792 17.913 13.6957 17.6965 13.6957 17.4348V2.56521C13.6957 2.30343 13.4792 2.08694 13.2174 2.08694H2V17.913ZM16.5217 3.39129H19V7.52173H16.5217V3.39129ZM16.5217 9.1739H19V13.3043H16.5217V9.1739ZM4.26772 12.1304C4.45909 11.6912 4.8375 11.3458 5.32 11.2036C5.65393 11.1049 6.04617 11.009 6.48108 10.9385C6.90149 10.8704 7.36179 10.8261 7.84782 10.8261C8.33386 10.8261 8.79415 10.8704 9.21457 10.9385C9.64948 11.009 10.0417 11.1049 10.3757 11.2036C10.8581 11.3458 11.2366 11.6912 11.4279 12.1304C11.5167 12.3342 11.5652 12.5581 11.5652 12.7913V14.1304H4.13043V12.7913C4.13043 12.5581 4.17895 12.3342 4.26772 12.1304ZM7.84782 9.17391C7.46 9.17391 7.09718 9.06708 6.78719 8.88123C6.18533 8.5204 5.78261 7.86169 5.78261 7.10869C5.78261 5.96787 6.707 5.04348 7.84782 5.04348C8.98865 5.04348 9.91304 5.96787 9.91304 7.10869C9.91304 7.86169 9.51032 8.5204 8.90845 8.88123C8.59846 9.06708 8.23565 9.17391 7.84782 9.17391ZM7.84782 7.04348C7.88408 7.04348 7.91304 7.07244 7.91304 7.10869C7.91304 7.14495 7.88408 7.17391 7.84782 7.17391C7.81157 7.17391 7.78261 7.14495 7.78261 7.10869C7.78261 7.07244 7.81157 7.04348 7.84782 7.04348Z" fill="#727588"/>
</svg>
