<svg width="18" height="20" viewBox="0 0 18 20" fill="none" xmlns="http://www.w3.org/2000/svg">
<path d="M16.0809 11.2108C16.1461 10.8108 16.1803 10.4058 16.183 10C16.1803 9.59417 16.1461 9.18924 16.0809 8.78917L17.7569 7.09833C17.8847 6.96921 17.9675 6.79922 17.9922 6.61533C18.017 6.43145 17.9822 6.24421 17.8934 6.08333L16.6962 3.91667C16.6062 3.75639 16.4678 3.63176 16.3028 3.56226C16.1378 3.49275 15.9553 3.48229 15.784 3.5325L13.5493 4.19917C12.9443 3.68461 12.2631 3.27622 11.5325 2.99L10.9715 0.631667C10.9284 0.451307 10.8288 0.291165 10.6885 0.176708C10.5482 0.0622511 10.3753 5.13525e-05 10.1973 0H7.803C7.62497 5.13525e-05 7.45207 0.0622511 7.3118 0.176708C7.17152 0.291165 7.07192 0.451307 7.02884 0.631667L6.46459 2.99C5.7351 3.27654 5.05505 3.68492 4.45098 4.19917L2.21631 3.5325C2.04497 3.48244 1.86258 3.49297 1.69757 3.56246C1.53256 3.63195 1.39421 3.75649 1.30408 3.91667L0.106931 6.08333C0.0179252 6.2443 -0.0169888 6.43171 0.00773977 6.61577C0.0324683 6.79984 0.11542 6.96999 0.243406 7.09917L1.91941 8.79C1.8542 9.1898 1.82004 9.59445 1.81726 10C1.81999 10.4058 1.85416 10.8108 1.91941 11.2108L0.243406 12.9017C0.115607 13.0308 0.0327724 13.2008 0.00804779 13.3847C-0.0166768 13.5686 0.0181252 13.7558 0.106931 13.9167L1.30408 16.0833C1.37419 16.2101 1.47507 16.3154 1.59654 16.3886C1.71802 16.4617 1.8558 16.5001 1.99603 16.5C2.07021 16.4997 2.14402 16.489 2.21551 16.4683L4.45019 15.8017C5.05522 16.3162 5.73638 16.7246 6.46698 17.0108L7.03124 19.3692C7.07437 19.549 7.17368 19.7086 7.31345 19.8229C7.45323 19.9371 7.62549 19.9994 7.803 20H10.1973C10.3753 19.9999 10.5482 19.9377 10.6885 19.8233C10.8288 19.7088 10.9284 19.5487 10.9715 19.3683L11.5357 17.01C12.2652 16.7235 12.9452 16.3151 13.5493 15.8008L15.784 16.4675C15.8555 16.4882 15.9293 16.4988 16.0035 16.4992C16.1437 16.4993 16.2815 16.4609 16.403 16.3877C16.5244 16.3146 16.6253 16.2093 16.6954 16.0825L17.8926 13.9158C17.9816 13.7549 18.0165 13.5675 17.9918 13.3834C17.967 13.1993 17.8841 13.0292 17.7561 12.9L16.0809 11.2108ZM9.00015 13.3333C8.36875 13.3333 7.75153 13.1378 7.22655 12.7716C6.70156 12.4053 6.29238 11.8847 6.05076 11.2756C5.80913 10.6665 5.74591 9.9963 5.86909 9.3497C5.99227 8.7031 6.29632 8.10915 6.74278 7.64298C7.18925 7.1768 7.75808 6.85933 8.37734 6.73072C8.99661 6.6021 9.63849 6.66811 10.2218 6.9204C10.8052 7.17269 11.3037 7.59994 11.6545 8.1481C12.0053 8.69626 12.1925 9.34073 12.1925 10C12.1925 10.8841 11.8562 11.7319 11.2575 12.357C10.6588 12.9821 9.84682 13.3333 9.00015 13.3333Z" fill="#4576BA"/>
</svg>
