<svg width="20" height="20" viewBox="0 0 20 20" fill="none" xmlns="http://www.w3.org/2000/svg">
<path fill-rule="evenodd" clip-rule="evenodd" d="M6.18182 4.09091C6.18182 5.24569 5.24569 6.18182 4.09091 6.18182C2.93613 6.18182 2 5.24569 2 4.09091C2 2.93613 2.93613 2 4.09091 2C5.24569 2 6.18182 2.93613 6.18182 4.09091ZM4.09091 8.18182C6.35026 8.18182 8.18182 6.35026 8.18182 4.09091C8.18182 1.83156 6.35026 0 4.09091 0C1.83156 0 0 1.83156 0 4.09091C0 6.35026 1.83156 8.18182 4.09091 8.18182ZM18 4.09091C18 5.24569 17.0639 6.18182 15.9091 6.18182C14.7543 6.18182 13.8182 5.24569 13.8182 4.09091C13.8182 2.93613 14.7543 2 15.9091 2C17.0639 2 18 2.93613 18 4.09091ZM15.9091 8.18182C18.1684 8.18182 20 6.35026 20 4.09091C20 1.83156 18.1684 0 15.9091 0C13.6497 0 11.8182 1.83156 11.8182 4.09091C11.8182 6.35026 13.6497 8.18182 15.9091 8.18182ZM15.9091 18C17.0639 18 18 17.0639 18 15.9091C18 14.7543 17.0639 13.8182 15.9091 13.8182C14.7543 13.8182 13.8182 14.7543 13.8182 15.9091C13.8182 17.0639 14.7543 18 15.9091 18ZM20 15.9091C20 18.1684 18.1684 20 15.9091 20C13.6497 20 11.8182 18.1684 11.8182 15.9091C11.8182 13.6497 13.6497 11.8182 15.9091 11.8182C18.1684 11.8182 20 13.6497 20 15.9091ZM6.18182 15.9091C6.18182 17.0639 5.24569 18 4.09091 18C2.93613 18 2 17.0639 2 15.9091C2 14.7543 2.93613 13.8182 4.09091 13.8182C5.24569 13.8182 6.18182 14.7543 6.18182 15.9091ZM4.09091 20C6.35026 20 8.18182 18.1684 8.18182 15.9091C8.18182 13.6497 6.35026 11.8182 4.09091 11.8182C1.83156 11.8182 0 13.6497 0 15.9091C0 18.1684 1.83156 20 4.09091 20Z" fill="#727588"/>
</svg>
