<svg width="20" height="20" viewBox="0 0 20 20" fill="none" xmlns="http://www.w3.org/2000/svg">
<path fill-rule="evenodd" clip-rule="evenodd" d="M8.18182 4.09091C8.18182 6.35026 6.35026 8.18182 4.09091 8.18182C1.83156 8.18182 0 6.35026 0 4.09091C0 1.83156 1.83156 0 4.09091 0C6.35026 0 8.18182 1.83156 8.18182 4.09091ZM20 4.09091C20 6.35026 18.1684 8.18182 15.9091 8.18182C13.6497 8.18182 11.8182 6.35026 11.8182 4.09091C11.8182 1.83156 13.6497 0 15.9091 0C18.1684 0 20 1.83156 20 4.09091ZM15.9091 20C18.1684 20 20 18.1684 20 15.9091C20 13.6497 18.1684 11.8182 15.9091 11.8182C13.6497 11.8182 11.8182 13.6497 11.8182 15.9091C11.8182 18.1684 13.6497 20 15.9091 20ZM8.18182 15.9091C8.18182 18.1684 6.35026 20 4.09091 20C1.83156 20 0 18.1684 0 15.9091C0 13.6497 1.83156 11.8182 4.09091 11.8182C6.35026 11.8182 8.18182 13.6497 8.18182 15.9091Z" fill="#4576BA"/>
</svg>
