<svg width="22" height="20" viewBox="0 0 22 20" fill="none" xmlns="http://www.w3.org/2000/svg">
<path fill-rule="evenodd" clip-rule="evenodd" d="M11.5765 0.20532C11.4141 0.072539 11.2108 0 11.001 0C10.7912 0 10.5879 0.072539 10.4255 0.20532L0.425395 8.38726C0.4254 8.38725 0.425389 8.38726 0.425395 8.38726C0.242971 8.54118 0.128383 8.76069 0.106404 8.99837C0.0844241 9.23605 0.156804 9.47284 0.307916 9.65761C0.438612 9.81742 0.619134 9.92723 0.819066 9.97056C0.850297 9.97732 0.882002 9.98247 0.914064 9.98593C1.15138 10.0116 1.38925 9.94281 1.57632 9.79455L2.81907 8.77817V19.091C2.81907 19.3322 2.91485 19.5634 3.08534 19.7339C3.25583 19.9044 3.48706 20.0002 3.72817 20.0002H9.18279V14.5455H12.8192V20.0002H18.2738C18.5149 20.0002 18.7462 19.9044 18.9167 19.7339C19.0872 19.5634 19.1829 19.3322 19.1829 19.091V8.77817L20.4254 9.79431C20.4325 9.8003 20.44 9.80643 20.4473 9.81219C20.5343 9.8812 20.6334 9.93372 20.7395 9.96706C20.8545 10.0032 20.9756 10.0161 21.0956 10.005C21.125 10.0023 21.1541 9.99812 21.1829 9.9926C21.2721 9.97553 21.3583 9.94517 21.4388 9.90239C21.5452 9.84579 21.6393 9.76858 21.7157 9.67526C21.792 9.58193 21.849 9.47436 21.8833 9.3588C21.9177 9.24325 21.9287 9.12201 21.9158 9.00215C21.9028 8.88228 21.8662 8.76619 21.808 8.66063C21.7542 8.56321 21.6831 8.47655 21.5982 8.4049C21.5911 8.39892 21.5839 8.39303 21.5766 8.38726L11.5765 0.20532ZM21.1829 8.88396L21.5766 8.38726L21.1829 8.86841V8.88396ZM17.1829 7.37656L11.001 2.31861L4.81907 7.37656V18.0002H7.18279V12.5455H14.8192V18.0002H17.1829V7.37656Z" fill="#727588"/>
</svg>
