<svg width="19" height="20" viewBox="0 0 19 20" fill="none" xmlns="http://www.w3.org/2000/svg">
<path fill-rule="evenodd" clip-rule="evenodd" d="M0 0.0869446H13.2174C14.5837 0.0869446 15.6957 1.19886 15.6957 2.56521V17.4348C15.6957 18.8011 14.5837 19.913 13.2174 19.913H0V0.0869446ZM9.91304 7.10868C9.91304 5.96786 8.98865 5.04347 7.84783 5.04347C6.707 5.04347 5.78261 5.96786 5.78261 7.10868C5.78261 8.24951 6.707 9.1739 7.84783 9.1739C8.98865 9.1739 9.91304 8.24951 9.91304 7.10868ZM4.13043 12.7913V14.1304H11.5652V12.7913C11.5652 12.0553 11.082 11.4118 10.3757 11.2036C9.71891 11.0095 8.83665 10.8261 7.84783 10.8261C6.859 10.8261 5.97674 11.0095 5.32 11.2036C4.6137 11.4118 4.13043 12.0553 4.13043 12.7913ZM19 3.39129H16.5217V7.52173H19V3.39129ZM19 9.1739H16.5217V13.3043H19V9.1739Z" fill="#4576BA"/>
</svg>
