<svg width="24" height="20" viewBox="0 0 24 20" xmlns="http://www.w3.org/2000/svg">
<path fill-rule="evenodd" clip-rule="evenodd" d="M3 0.5C2.72386 0.5 2.5 0.723858 2.5 1V4.3751C2.5 4.65124 2.72386 4.8751 3 4.8751C3.27614 4.8751 3.5 4.65124 3.5 4.3751V1.5H6.3751C6.65124 1.5 6.8751 1.27614 6.8751 1C6.8751 0.723858 6.65124 0.5 6.3751 0.5H3ZM0.75 9.5C0.473858 9.5 0.25 9.72386 0.25 10C0.25 10.2761 0.473858 10.5 0.75 10.5H23.25C23.5261 10.5 23.75 10.2761 23.75 10C23.75 9.72386 23.5261 9.5 23.25 9.5H0.75ZM17.1249 1C17.1249 0.723858 17.3488 0.5 17.6249 0.5H21C21.2761 0.5 21.5 0.723858 21.5 1V4.3751C21.5 4.65124 21.2761 4.8751 21 4.8751C20.7239 4.8751 20.5 4.65124 20.5 4.3751V1.5H17.6249C17.3488 1.5 17.1249 1.27614 17.1249 1ZM21.5 15.6249C21.5 15.3488 21.2761 15.1249 21 15.1249C20.7239 15.1249 20.5 15.3488 20.5 15.6249V18.5H17.6249C17.3488 18.5 17.1249 18.7239 17.1249 19C17.1249 19.2761 17.3488 19.5 17.6249 19.5H21C21.2761 19.5 21.5 19.2761 21.5 19V15.6249ZM3 15.1249C3.27614 15.1249 3.5 15.3488 3.5 15.6249V18.5H6.3751C6.65124 18.5 6.8751 18.7239 6.8751 19C6.8751 19.2761 6.65124 19.5 6.3751 19.5H3C2.72386 19.5 2.5 19.2761 2.5 19V15.6249C2.5 15.3488 2.72386 15.1249 3 15.1249ZM5 3.77778C5 3.34844 5.34844 3 5.77778 3H8.88889C9.31822 3 9.66667 3.34844 9.66667 3.77778V6.88889C9.66667 7.31822 9.31822 7.66667 8.88889 7.66667H5.77778C5.34844 7.66667 5 7.31822 5 6.88889V3.77778ZM12.7778 4.55556H11.2222V3H12.7778V4.55556ZM14.3333 3.77778C14.3333 3.34844 14.6818 3 15.1111 3H18.2222C18.6516 3 19 3.34844 19 3.77778V6.88889C19 7.31822 18.6516 7.66667 18.2222 7.66667H15.1111C14.6818 7.66667 14.3333 7.31822 14.3333 6.88889V3.77778ZM8.11111 4.55556H6.55556V6.11111H8.11111V4.55556ZM17.4444 4.55556H15.8889V6.11111H17.4444V4.55556ZM11.2222 7.66667V6.11111H12.7778V7.66667H11.2222ZM12.7778 12.3333V11.7778H14.3333V12.3333H12.7778ZM12.7778 13.8889H11.2222V12.3333H12.7778V13.8889ZM14.3333 13.8889H12.7778V15.4444H11.2222V17H12.7778V15.4444H14.3333V17H15.8889V15.4444H17.4444V17H19V15.4444H17.4444V13.8889H19V12.3333H17.4444V11.7778H15.8889V12.3333H14.3333V13.8889ZM15.8889 13.8889V12.3333H17.4444V13.8889H15.8889ZM15.8889 13.8889H14.3333V15.4444H15.8889V13.8889ZM5 13.1111C5 12.6818 5.34844 12.3333 5.77778 12.3333H8.88889C9.31822 12.3333 9.66667 12.6818 9.66667 13.1111V16.2222C9.66667 16.6516 9.31822 17 8.88889 17H5.77778C5.34844 17 5 16.6516 5 16.2222V13.1111ZM8.11111 13.8889H6.55556V15.4444H8.11111V13.8889Z"/>
</svg>
