<svg width="128" height="128" viewBox="0 0 128 128" fill="none" xmlns="http://www.w3.org/2000/svg">
<mask id="mask0" mask-type="alpha" maskUnits="userSpaceOnUse" x="0" y="0" width="128" height="128">
<circle cx="64" cy="64" r="64" fill="#DADCE7"/>
</mask>
<g mask="url(#mask0)">
<circle opacity="0.05" cx="64" cy="64" r="64" fill="#1F4570"/>
<path d="M5.48889 37.0666H27.8889V46.0444C27.8889 46.9211 28.4552 47.7167 29.3375 48.0839C29.6705 48.2219 30.0253 48.2888 30.3778 48.2888C30.9611 48.2888 31.5371 48.1036 31.9965 47.7485L49.4187 34.2818C49.9705 33.8555 50.2889 33.233 50.2889 32.5777C50.2889 31.9223 49.9705 31.2998 49.4187 30.8735L31.9965 17.4068C31.2625 16.838 30.2222 16.7087 29.3375 17.0715C28.4552 17.4386 27.8889 18.2342 27.8889 19.111V28.0888H5.48889C4.11425 28.0888 3 29.0936 3 30.3332V34.8221C3 36.0616 4.11425 37.0666 5.48889 37.0666Z" fill="#9EDB9E"/>
<path d="M96.7076 48.8292C95.9736 48.2604 94.9333 48.131 94.0486 48.4938C93.1663 48.8609 92.6 49.6566 92.6 50.5333V59.5111H-0.511111C-1.88575 59.5111 -3 60.5159 -3 61.7556V66.2445C-3 67.484 -1.88575 68.4889 -0.511111 68.4889H92.6V77.4667C92.6 78.3435 93.1663 79.1391 94.0486 79.5062C94.3816 79.6443 94.7365 79.7112 95.0889 79.7112C95.6722 79.7112 96.2483 79.526 96.7076 79.1709L114.13 65.7042C114.682 65.2779 115 64.6554 115 64C115 63.3447 114.682 62.7222 114.13 62.2959L96.7076 48.8292Z" fill="#4DA34D"/>
<path d="M66.841 80.2498C66.107 79.681 65.0667 79.5517 64.1819 79.9145C63.2997 80.2816 62.7333 81.0772 62.7333 81.954V90.9318H5.48889C4.11425 90.9318 3 91.9366 3 93.1762V97.6651C3 98.9046 4.11425 99.9096 5.48889 99.9096H62.7333V108.887C62.7333 109.764 63.2997 110.56 64.1819 110.927C64.5149 111.065 64.8698 111.132 65.2222 111.132C65.8056 111.132 66.3816 110.947 66.841 110.592L84.2632 97.1248C84.8149 96.6985 85.1333 96.076 85.1333 95.4207C85.1333 94.7653 84.8149 94.1428 84.2632 93.7165L66.841 80.2498Z" fill="#72C472"/>
</g>
</svg>
