<svg width="18" height="20" viewBox="0 0 18 20" fill="none" xmlns="http://www.w3.org/2000/svg">
<path fill-rule="evenodd" clip-rule="evenodd" d="M4 3.00001H2V17.8H16V3.00001H14V6.00001C14 6.5523 13.5523 7.00001 13 7.00001H10.6C10.0477 7.00001 9.6 6.5523 9.6 6.00001C9.6 5.6683 9.33171 5.40001 9 5.40001C8.66829 5.40001 8.4 5.6683 8.4 6.00001C8.4 6.5523 7.95228 7.00001 7.4 7.00001H5C4.44772 7.00001 4 6.5523 4 6.00001V3.00001ZM13.98 1.00001H17C17.5523 1.00001 18 1.44772 18 2.00001V18.8C18 19.3523 17.5523 19.8 17 19.8H1C0.447715 19.8 0 19.3523 0 18.8V2.00001C0 1.44772 0.447715 1.00001 1 1.00001H4.02C4.11266 0.543561 4.51621 0.200012 5 0.200012H13C13.4838 0.200012 13.8873 0.543561 13.98 1.00001ZM6 5.00001V2.20001H12V5.00001H11.4008C11.0091 4.0603 10.0819 3.40001 9 3.40001C7.91811 3.40001 6.99087 4.0603 6.59916 5.00001H6ZM12.1071 10.0929C12.4976 10.4834 12.4976 11.1166 12.1071 11.5071L8.9071 14.7071C8.51657 15.0976 7.88341 15.0976 7.49288 14.7071L5.89288 13.1071C5.50236 12.7166 5.50236 12.0834 5.89288 11.6929C6.28341 11.3024 6.91657 11.3024 7.3071 11.6929L8.19999 12.5858L10.6929 10.0929C11.0834 9.70238 11.7166 9.70238 12.1071 10.0929Z" fill="#727588"/>
</svg>
