<svg width="18" height="20" viewBox="0 0 18 20" fill="none" xmlns="http://www.w3.org/2000/svg">
<path fill-rule="evenodd" clip-rule="evenodd" d="M7.9357 5.96046e-08L7.93599 0H10.0643H10.0646C10.4607 0.000115752 10.8383 0.140644 11.1378 0.388096C11.4362 0.634622 11.639 0.971381 11.7257 1.33888L11.7259 1.33976L12.1107 2.97767C12.512 3.17251 12.8953 3.40446 13.2562 3.67049L14.7411 3.22197L14.7457 3.22055L14.7458 3.22056C15.1222 3.10886 15.5237 3.13268 15.8836 3.28616C16.2424 3.43914 16.5316 3.70832 16.7155 4.03988L16.7189 4.04596L16.7189 4.04598L17.783 5.99598L17.7832 5.99633C17.965 6.32985 18.0339 6.71244 17.9844 7.08544C17.9348 7.45863 17.7679 7.81248 17.499 8.08752L17.4985 8.08806L16.3473 9.26388C16.3707 9.50621 16.3833 9.74963 16.3849 9.99334L16.385 10.0067H16.3849C16.3833 10.2503 16.3707 10.4937 16.3474 10.736L17.4976 11.9103L17.4979 11.9106C17.7672 12.1858 17.9344 12.54 17.984 12.9135C18.0335 13.2869 17.9644 13.6698 17.7821 14.0036L16.7182 15.9533L16.718 15.9535C16.5741 16.2171 16.3631 16.4429 16.101 16.6028C15.8383 16.7629 15.5357 16.8496 15.2243 16.8492L15.2206 16.8492C15.0607 16.8485 14.9021 16.8252 14.7492 16.7805L14.741 16.7781L14.7411 16.778L13.2565 16.3296C12.8962 16.5954 12.5135 16.8273 12.113 17.0222L11.7257 18.6611C11.7256 18.6612 11.7256 18.6614 11.7256 18.6615C11.6388 19.0288 11.4361 19.3655 11.1378 19.6119C10.8383 19.8594 10.4607 19.9999 10.0646 20H10.0643H7.93599L7.93279 20C7.53782 19.9987 7.16169 19.8579 6.86326 19.611C6.56594 19.3649 6.36374 19.0292 6.27693 18.6628L6.27679 18.6622L5.88953 17.0234C5.48802 16.8285 5.10448 16.5964 4.74338 16.3303L3.25849 16.7788L3.25031 16.7813L3.2503 16.7812C3.09739 16.826 2.93882 16.8492 2.77897 16.85L2.77527 16.85C2.46382 16.8503 2.16125 16.7637 1.89858 16.6035C1.63641 16.4437 1.42547 16.2179 1.28152 15.9543L1.28137 15.954L0.217243 14.004L0.217052 14.0037C0.0352187 13.6702 -0.0336833 13.2876 0.0158511 12.9146C0.0654107 12.5414 0.232399 12.1875 0.501253 11.9125L0.501783 11.9119L1.65291 10.7361C1.62952 10.4938 1.61698 10.2504 1.61536 10.0067L1.61527 9.99323L1.61536 9.99323C1.617 9.74981 1.62954 9.50668 1.6529 9.26463L0.501783 8.08881L0.501613 8.08864C0.232351 7.81346 0.0651301 7.45929 0.0155632 7.08573C-0.0339646 6.71247 0.0351051 6.32963 0.217242 5.99598C0.217294 5.99588 0.217345 5.99579 0.217397 5.99569L1.28137 4.04598L1.28506 4.03922L1.28509 4.03923C1.46914 3.70805 1.75822 3.43921 2.11672 3.28634C2.47638 3.13298 2.87748 3.10902 3.25373 3.22033L3.2592 3.22195L3.2592 3.22197L4.7438 3.6704C5.10407 3.40457 5.48671 3.17271 5.88728 2.97785L6.27457 1.33888C6.2746 1.33877 6.27463 1.33865 6.27466 1.33853C6.36141 0.971163 6.56416 0.634542 6.86247 0.388096C7.16199 0.140644 7.53956 0.000115752 7.9357 5.96046e-08ZM7.24782 1.56849L7.24786 1.5685L7.24782 1.56849L8.17343 2L7.71949 3.92097L7.59973 4.42776C6.06338 5.14532 6.57241 4.83634 7.11585 4.62021L5.60932 5.5367L5.19319 5.89539L4.66727 5.73653L2.92451 5.21012L2.05046 6.81179L3.42071 8.21144L3.77365 8.57195C3.61781 9.68825 3.64392 9.37723 3.69341 9.07005C3.64389 10.6233 3.61778 10.3121 3.61536 10.0001L3.69341 10.9307L3.77365 11.4288L3.42071 11.7893L2.05073 13.1887L2.92476 14.7903L4.66656 14.2642L5.19217 14.1055C6.57287 15.1643 6.06302 14.8553 5.60823 14.4637L7.11713 15.3802L7.60173 15.5724L7.72162 16.0798L8.17538 18H9.82682L10.2808 16.079L10.4005 15.5722C11.9369 14.8547 11.4278 15.1637 10.8844 15.3798L12.3909 14.4633L12.8071 14.1046L13.333 14.2635L15.0748 14.7896L15.9491 13.1875L14.5797 11.7895L14.2266 11.429C14.3825 10.312 14.3564 10.6233 14.3068 10.9307C14.3564 9.37671 14.3825 9.68796 14.3849 10L14.3068 9.0693L14.2266 8.5712L14.5795 8.21069L15.9495 6.81131L15.0757 5.21012L13.333 5.73653L12.8074 5.8953C11.4267 4.83643 11.9365 5.14541 12.3913 5.53702L10.8824 4.62055L10.3971 4.42803L10.2776 3.91974L9.82655 2M16.0269 13.0449L16.0267 13.0452L16.0269 13.0449ZM9.68493 8.14438C9.35596 8.00032 8.9975 7.96365 8.65231 8.03624C8.30662 8.10893 7.98104 8.28996 7.72007 8.56586C7.45853 8.84235 7.27469 9.20118 7.19972 9.59964C7.12472 9.99825 7.16364 10.4109 7.30953 10.7832C7.45529 11.1553 7.69866 11.4644 8.00056 11.6776C8.30169 11.8904 8.64946 12 9.00013 12C9.469 12 9.93071 11.8036 10.2802 11.4341C10.6314 11.0628 10.8378 10.5478 10.8378 10C10.8378 9.59246 10.7233 9.19823 10.5143 8.86755C10.3056 8.53738 10.0147 8.28878 9.68493 8.14438ZM8.24073 6.07905C8.99646 5.92013 9.77912 6.00227 10.4872 6.31234C11.1945 6.62207 11.79 7.14251 12.2049 7.79903C12.6195 8.45504 12.8378 9.22086 12.8378 10C12.8378 11.0435 12.4462 12.0546 11.7332 12.8085C11.0183 13.5643 10.0365 14 9.00013 14C8.22831 14 7.4788 13.7577 6.84663 13.3112C6.21522 12.8651 5.73116 12.2372 5.44736 11.5129C5.1637 10.7889 5.09022 9.99509 5.23421 9.22982C5.37823 8.46439 5.73491 7.75412 6.26709 7.1915C6.79984 6.62828 7.4855 6.23786 8.24073 6.07905Z" fill="#727588"/>
</svg>
