<svg width="14" height="14" viewBox="0 0 14 14" fill="none" xmlns="http://www.w3.org/2000/svg">
<path fill-rule="evenodd" clip-rule="evenodd" d="M0 0.648649C0 0.29041 0.29041 0 0.648649 0H9.35135C9.70959 0 10 0.29041 10 0.648649V9.35135C10 9.70959 9.70959 10 9.35135 10H0.648649C0.29041 10 0 9.70959 0 9.35135V0.648649ZM2 2H8V8H2V2ZM12.6486 4C12.2904 4 11.982 4.30843 11.982 4.66667V6L12 12H5.33333H4.64865C4.29041 12 4 12.2904 4 12.6486V13.3514C4 13.7096 4.29041 14 4.64865 14H13.3514C13.7096 14 14 13.7096 14 13.3514V4.64865C14 4.29041 13.7096 4 13.3514 4H12.6486Z" fill="#4576BA"/>
</svg>
