<svg width="14" height="12" viewBox="0 0 14 12" fill="none" xmlns="http://www.w3.org/2000/svg">
<path d="M7.62495 0C4.31162 0 1.62495 2.68667 1.62495 6H0.832057C0.386605 6 0.163521 6.53857 0.478504 6.85355L2.21828 8.59333C2.24125 8.63928 2.30246 8.64925 2.33883 8.61297L4.10217 6.85399C4.41776 6.53919 4.19481 6 3.74906 6H2.95828C2.95828 3.42 5.04495 1.33333 7.62495 1.33333C10.205 1.33333 12.2916 3.42 12.2916 6C12.2916 8.58 10.205 10.6667 7.62495 10.6667C6.51868 10.6667 5.50112 10.2773 4.70363 9.63001C4.48863 9.4555 4.17247 9.45248 3.97666 9.64829L3.7385 9.88645C3.54324 10.0817 3.54199 10.4001 3.7526 10.5787C4.79753 11.4648 6.145 12 7.62495 12C10.9383 12 13.625 9.31333 13.625 6C13.625 2.68667 10.9383 0 7.62495 0ZM7.45828 3.33333C7.18214 3.33333 6.95828 3.55719 6.95828 3.83333V6.66667L9.40835 8.12068C9.63115 8.2529 9.91893 8.17965 10.0514 7.95702C10.1841 7.7341 10.1108 7.44587 9.8878 7.31335L7.95828 6.16667V3.83333C7.95828 3.55719 7.73443 3.33333 7.45828 3.33333Z" fill="#727588"/>
</svg>
