<svg width="14" height="14" viewBox="0 0 14 14" xmlns="http://www.w3.org/2000/svg">
<path fill-rule="evenodd" clip-rule="evenodd" d="M4.7116 0C4.3212 0 4.00472 0.301701 4.00472 0.673869V2.30042H0.706876C0.316479 2.30042 0 2.60212 0 2.97429C0 3.34645 0.316479 3.64816 0.706876 3.64816H13.2931C13.6835 3.64816 14 3.34645 14 2.97429C14 2.60212 13.6835 2.30042 13.2931 2.30042H9.99529V0.673869C9.99529 0.301701 9.67881 0 9.28842 0H4.7116ZM5.41848 2.30042V1.34774H8.58154V2.30042H5.41848ZM2.4232 4.60082C2.03281 4.60082 1.71633 4.90253 1.71633 5.27469V12.1759C1.71633 12.6485 1.90271 13.1084 2.24542 13.4529C2.5893 13.7986 3.06397 14 3.56741 14H10.4326C10.9361 14 11.4107 13.7986 11.7546 13.4529C12.0973 13.1084 12.2837 12.6485 12.2837 12.1759V5.27469C12.2837 4.90253 11.9672 4.60082 11.5768 4.60082C11.1864 4.60082 10.87 4.90253 10.87 5.27469V12.1759C10.87 12.3134 10.8153 12.4386 10.7288 12.5255C10.6436 12.6112 10.5362 12.6523 10.4326 12.6523H3.56741C3.4638 12.6523 3.35644 12.6112 3.27125 12.5255C3.18474 12.4386 3.13008 12.3134 3.13008 12.1759V5.27469C3.13008 4.90253 2.8136 4.60082 2.4232 4.60082ZM5.79663 5.77894C5.52799 5.50889 5.08058 5.49758 4.79731 5.75368C4.51403 6.00977 4.50217 6.43629 4.77081 6.70634L6.02583 7.96795L4.77081 9.22956C4.50217 9.4996 4.51403 9.92612 4.79731 10.1822C5.08058 10.4383 5.52799 10.427 5.79663 10.157L7.00002 8.94725L8.20342 10.157C8.47206 10.427 8.91947 10.4383 9.20274 10.1822C9.48601 9.92612 9.49788 9.4996 9.22924 9.22956L7.97421 7.96795L9.22924 6.70634C9.49788 6.43629 9.48601 6.00977 9.20274 5.75368C8.91947 5.49758 8.47206 5.50889 8.20342 5.77894L7.00002 6.98865L5.79663 5.77894Z"/>
</svg>
